# xmcd CD database file
#
# Track frame offsets:
#	150
#	16511
#	32794
#	56665
#	73063
#	93818
#	117555
#	152770
#	182229
#	207043
#	229881
#	238506
#	268593
#	284968
#
# Disc length: 4103 seconds
#
# Revision: 0
# Processed by: cddbd v1.5.2PL0 Copyright (c) Steve Scherf et al.
# Submitted via: CDex 1.70beta2
#
DISCID=c610050e
DTITLE=KLF - Disco Collection
DYEAR=2002
DGENRE=New Age
TTITLE0=Last Train to Trancentral
TTITLE1=3 A.M. Eternal
TTITLE2=What Time Is Love&
TTITLE3=Stand By The Jams
TTITLE4=Build a Fire
TTITLE5=The White Room
TTITLE6=All Bound For Mu Mu Land
TTITLE7=Let Them Eat Ice Cream
TTITLE8=Stand By The Jams 12' Version
TTITLE9=Justified And Ancient
TTITLE10=Church Of The KLF
TTITLE11=No More Tears
TTITLE12=Make It Rain
TTITLE13=The White Room (version)
EXTD=YEAR: 2002
EXTT0=
EXTT1=
EXTT2=
EXTT3=
EXTT4=
EXTT5=
EXTT6=
EXTT7=
EXTT8=
EXTT9=
EXTT10=
EXTT11=
EXTT12=
EXTT13=
PLAYORDER=
